<svg xmlns="http://www.w3.org/2000/svg" viewBox="25 149 450 202" width="450" height="202">
  <path d="M55.948 149.426h21.433v200.693H55.948zm28.187 0h6.643v200.693h-6.643zm12.432 0h11.89v200.693h-11.89zm23.352 0h6.643v200.693h-6.643zm9.532 0h5.119v200.693h-5.119zm-89.803 0h6.643v200.693h-6.643zm-14.648 0h11.89v200.693H25zm145.069 0h21.433v200.693h-21.433zm28.187 0h6.643v200.693h-6.643zm12.433 0h11.889v200.693h-11.889zm23.351 0h6.643v200.693h-6.643zm9.532 0h5.119v200.693h-5.119zm-89.803 0h6.643v200.693h-6.643zm-14.648 0h11.89v200.693h-11.89zm117.99 0h11.89v200.693h-11.89zm23.352 0h6.643v200.693h-6.643zm9.532 0h5.118v200.693h-5.118zm24.318 0h6.643v200.693h-6.643zm-14.648 0h11.89v200.693h-11.89zm30.12 0h6.643v200.693h-6.643zm9.532 0h5.119v200.693h-5.119zm24.318 0h6.643v200.693h-6.643zm-14.648 0h11.89v200.693h-11.89zm27.081 0h21.433v200.693h-21.433zm28.187 0h6.643v200.693h-6.643zm12.433 0h11.889v200.693h-11.889zm23.351 0h6.643v200.693h-6.643zm9.532 0h5.118v200.693h-5.118zm13.539 0H475v200.693h-11.89z" style="fill-rule:evenodd;clip-rule:evenodd;fill:#1d1d1b"/>
  <path d="M49.248 350.574h410.834V238.091H49.248z" style="fill-rule:evenodd;clip-rule:evenodd;fill:#fff"/>
  <path d="M56.991 346.258V244.489h38.187c7.77 0 14 1.018 18.714 3.079q7.035 3.092 11.015 9.523c2.677 4.265 4.003 8.741 4.003 13.433 0 4.335 -1.185 8.433 -3.53 12.27q-3.517 5.757 -10.659 9.311c6.159 1.8 10.896 4.88 14.189 9.238 3.317 4.335 4.975 9.476 4.975 15.398 0 4.785 -1.018 9.215 -3.032 13.313s-4.501 7.249 -7.462 9.476c-2.962 2.203 -6.681 3.885 -11.134 5.022 -4.478 1.138 -9.949 1.706 -16.44 1.706zm13.503 -58.986h22.007c5.969 0 10.257 -0.403 12.84 -1.185 3.435 -1.019 6.016 -2.724 7.746 -5.093 1.729 -2.369 2.607 -5.331 2.607 -8.908 0 -3.387 -0.806 -6.372 -2.44 -8.93 -1.611 -2.582 -3.932 -4.36 -6.941 -5.307s-8.173 -1.421 -15.47 -1.421H70.494zm0 47.046h25.348c4.359 0 7.414 -0.165 9.191 -0.497 3.079 -0.545 5.686 -1.469 7.77 -2.772s3.79 -3.197 5.14 -5.685c1.351 -2.487 2.014 -5.354 2.014 -8.599 0 -3.814 -0.971 -7.107 -2.937 -9.926 -1.942 -2.819 -4.643 -4.785 -8.102 -5.922 -3.435 -1.137 -8.41 -1.706 -14.877 -1.706H70.494zm75.616 -24.945c0 -13.621 3.791 -23.712 11.395 -30.274 6.324 -5.448 14.071 -8.172 23.192 -8.172 10.114 0 18.406 3.316 24.85 9.949 6.419 6.609 9.641 15.777 9.641 27.455 0 9.476 -1.421 16.913 -4.264 22.339q-4.264 8.136 -12.438 12.65c-5.425 3.009 -11.37 4.5 -17.79 4.5 -10.329 0 -18.667 -3.292 -25.04 -9.901 -6.371 -6.609 -9.546 -16.133 -9.546 -28.546m12.792 0.025c0 9.428 2.061 16.487 6.183 21.155 4.145 4.69 9.334 7.036 15.612 7.036 6.206 0 11.37 -2.345 15.516 -7.06q6.184 -7.07 6.184 -21.533c0 -9.096 -2.085 -15.99 -6.231 -20.657 -4.146 -4.691 -9.31 -7.036 -15.469 -7.036 -6.278 0 -11.466 2.321 -15.612 6.988q-6.183 7 -6.183 21.107m70.665 36.86V244.489h12.508v101.769zm82.177 -23.879 12.933 1.706c-2.013 7.509 -5.78 13.36 -11.276 17.506 -5.496 4.145 -12.508 6.229 -21.06 6.229q-16.131 0 -25.584 -9.949c-6.301 -6.609 -9.452 -15.918 -9.452 -27.882 0 -12.365 3.174 -21.983 9.546 -28.806 6.372 -6.846 14.64 -10.256 24.803 -10.256 9.831 0 17.861 3.339 24.092 10.044 6.229 6.704 9.356 16.132 9.356 28.284 0 0.734 -0.023 1.849 -0.07 3.317h-54.935c0.474 8.078 2.749 14.284 6.87 18.572 4.098 4.288 9.238 6.444 15.374 6.444 4.572 0 8.481 -1.208 11.702 -3.625 3.247 -2.416 5.806 -6.278 7.701 -11.584m-40.934 -20.041h41.076c-0.545 -6.206 -2.132 -10.849 -4.715 -13.953 -3.955 -4.808 -9.12 -7.225 -15.445 -7.225 -5.733 0 -10.541 1.919 -14.449 5.757q-5.828 5.756 -6.467 15.421m96.816 32.762 1.706 11.039c-3.505 0.735 -6.657 1.113 -9.404 1.113 -4.525 0 -8.03 -0.71 -10.542 -2.156 -2.487 -1.445 -4.24 -3.316 -5.258 -5.661 -1.019 -2.346 -1.516 -7.273 -1.516 -14.782v-42.499h-9.239v-9.665h9.239v-18.241l12.507 -7.509v25.749h12.508v9.665h-12.508v43.21c0 3.577 0.213 5.875 0.664 6.893 0.425 1.019 1.137 1.824 2.131 2.44 0.995 0.592 2.417 0.9 4.265 0.9 1.373 0.001 3.197 -0.164 5.447 -0.496m7.652 -25.727c0 -13.621 3.791 -23.712 11.395 -30.274 6.324 -5.448 14.071 -8.172 23.192 -8.172 10.115 0 18.406 3.316 24.85 9.949 6.419 6.609 9.641 15.777 9.641 27.455 0 9.476 -1.421 16.913 -4.264 22.339q-4.264 8.136 -12.438 12.65c-5.425 3.009 -11.371 4.5 -17.79 4.5 -10.329 0 -18.667 -3.292 -25.04 -9.901 -6.371 -6.609 -9.546 -16.133 -9.546 -28.546m12.793 0.025c0 9.428 2.061 16.487 6.183 21.155 4.145 4.69 9.334 7.036 15.612 7.036 6.206 0 11.37 -2.345 15.516 -7.06q6.184 -7.07 6.184 -21.533c0 -9.096 -2.085 -15.99 -6.231 -20.657 -4.146 -4.691 -9.31 -7.036 -15.469 -7.036 -6.277 0 -11.466 2.321 -15.612 6.988q-6.183 7 -6.183 21.107" style="fill:#1d1d1b"/>
</svg>
